<svg width="800" height="600" viewBox="0 0 800 600" fill="none" xmlns="http://www.w3.org/2000/svg">
  <defs>
    <linearGradient id="bg" x1="0" y1="0" x2="0" y2="1">
      <stop offset="0%" stop-color="#f6f7f8" />
      <stop offset="100%" stop-color="#ffffff" />
    </linearGradient>
  </defs>
  <rect width="800" height="600" fill="url(#bg)" />
  <rect x="120" y="140" width="220" height="360" rx="12" fill="#e2e6e9" />
  <rect x="160" y="190" width="140" height="22" rx="6" fill="#cfd5d9" />
  <rect x="160" y="230" width="140" height="22" rx="6" fill="#cfd5d9" />
  <rect x="160" y="270" width="140" height="22" rx="6" fill="#cfd5d9" />
  <rect x="160" y="310" width="140" height="22" rx="6" fill="#cfd5d9" />
  <rect x="160" y="350" width="140" height="22" rx="6" fill="#cfd5d9" />
  <rect x="160" y="390" width="140" height="22" rx="6" fill="#cfd5d9" />
  <rect x="380" y="90" width="260" height="420" rx="14" fill="#dde3e6" />
  <rect x="420" y="140" width="180" height="26" rx="7" fill="#c9d0d4" />
  <rect x="420" y="185" width="180" height="26" rx="7" fill="#c9d0d4" />
  <rect x="420" y="230" width="180" height="26" rx="7" fill="#c9d0d4" />
  <rect x="420" y="275" width="180" height="26" rx="7" fill="#c9d0d4" />
  <rect x="420" y="320" width="180" height="26" rx="7" fill="#c9d0d4" />
  <rect x="420" y="365" width="180" height="26" rx="7" fill="#c9d0d4" />
  <rect x="420" y="410" width="180" height="26" rx="7" fill="#c9d0d4" />
  <rect x="0" y="520" width="800" height="80" fill="#eef1f3" />
</svg>
