<svg width="800" height="600" viewBox="0 0 800 600" fill="none" xmlns="http://www.w3.org/2000/svg">
  <defs>
    <linearGradient id="sky" x1="0" y1="0" x2="0" y2="1">
      <stop offset="0%" stop-color="#f6f7f8" />
      <stop offset="100%" stop-color="#ffffff" />
    </linearGradient>
    <linearGradient id="glass" x1="0" y1="0" x2="1" y2="1">
      <stop offset="0%" stop-color="#e4f2ea" />
      <stop offset="100%" stop-color="#cddad2" />
    </linearGradient>
  </defs>
  <rect width="800" height="600" fill="url(#sky)" />
  <rect x="60" y="220" width="140" height="300" rx="8" fill="#e3e7ea" />
  <rect x="90" y="250" width="80" height="16" rx="4" fill="#d1d7db" />
  <rect x="90" y="285" width="80" height="16" rx="4" fill="#d1d7db" />
  <rect x="90" y="320" width="80" height="16" rx="4" fill="#d1d7db" />
  <rect x="90" y="355" width="80" height="16" rx="4" fill="#d1d7db" />
  <rect x="90" y="390" width="80" height="16" rx="4" fill="#d1d7db" />
  <rect x="250" y="160" width="170" height="360" rx="10" fill="url(#glass)" />
  <rect x="280" y="200" width="110" height="20" rx="6" fill="#c2d2c8" />
  <rect x="280" y="235" width="110" height="20" rx="6" fill="#c2d2c8" />
  <rect x="280" y="270" width="110" height="20" rx="6" fill="#c2d2c8" />
  <rect x="280" y="305" width="110" height="20" rx="6" fill="#c2d2c8" />
  <rect x="280" y="340" width="110" height="20" rx="6" fill="#c2d2c8" />
  <rect x="280" y="375" width="110" height="20" rx="6" fill="#c2d2c8" />
  <rect x="280" y="410" width="110" height="20" rx="6" fill="#c2d2c8" />
  <rect x="460" y="190" width="110" height="330" rx="8" fill="#e7eaed" />
  <rect x="485" y="220" width="60" height="16" rx="4" fill="#d4d9dd" />
  <rect x="485" y="250" width="60" height="16" rx="4" fill="#d4d9dd" />
  <rect x="485" y="280" width="60" height="16" rx="4" fill="#d4d9dd" />
  <rect x="485" y="310" width="60" height="16" rx="4" fill="#d4d9dd" />
  <rect x="485" y="340" width="60" height="16" rx="4" fill="#d4d9dd" />
  <rect x="610" y="140" width="120" height="380" rx="12" fill="#dfe6e1" />
  <rect x="635" y="180" width="70" height="18" rx="5" fill="#cbd3ce" />
  <rect x="635" y="215" width="70" height="18" rx="5" fill="#cbd3ce" />
  <rect x="635" y="250" width="70" height="18" rx="5" fill="#cbd3ce" />
  <rect x="635" y="285" width="70" height="18" rx="5" fill="#cbd3ce" />
  <rect x="635" y="320" width="70" height="18" rx="5" fill="#cbd3ce" />
  <rect x="635" y="355" width="70" height="18" rx="5" fill="#cbd3ce" />
  <rect x="635" y="390" width="70" height="18" rx="5" fill="#cbd3ce" />
  <rect x="0" y="520" width="800" height="80" fill="#eef1f3" />
  <path d="M40 520L140 470L220 510L320 460L420 520L520 470L640 510L760 460" stroke="#cfd6d2" stroke-width="6" stroke-linecap="round" stroke-linejoin="round" />
</svg>
