<svg width="800" height="600" viewBox="0 0 800 600" fill="none" xmlns="http://www.w3.org/2000/svg">
  <rect width="800" height="600" fill="#f6f7f8" />
  <circle cx="620" cy="120" r="80" fill="#e8f1ec" />
  <rect x="80" y="200" width="180" height="320" rx="12" fill="#e1e6e9" />
  <rect x="110" y="240" width="120" height="18" rx="6" fill="#cdd3d7" />
  <rect x="110" y="270" width="120" height="18" rx="6" fill="#cdd3d7" />
  <rect x="110" y="300" width="120" height="18" rx="6" fill="#cdd3d7" />
  <rect x="110" y="330" width="120" height="18" rx="6" fill="#cdd3d7" />
  <rect x="110" y="360" width="120" height="18" rx="6" fill="#cdd3d7" />
  <rect x="110" y="390" width="120" height="18" rx="6" fill="#cdd3d7" />
  <rect x="300" y="140" width="200" height="380" rx="14" fill="#dbe1e5" />
  <rect x="340" y="190" width="120" height="20" rx="6" fill="#c7ced2" />
  <rect x="340" y="225" width="120" height="20" rx="6" fill="#c7ced2" />
  <rect x="340" y="260" width="120" height="20" rx="6" fill="#c7ced2" />
  <rect x="340" y="295" width="120" height="20" rx="6" fill="#c7ced2" />
  <rect x="340" y="330" width="120" height="20" rx="6" fill="#c7ced2" />
  <rect x="340" y="365" width="120" height="20" rx="6" fill="#c7ced2" />
  <rect x="340" y="400" width="120" height="20" rx="6" fill="#c7ced2" />
  <rect x="540" y="220" width="160" height="300" rx="12" fill="#e3e7ea" />
  <rect x="570" y="260" width="100" height="18" rx="6" fill="#cfd5d9" />
  <rect x="570" y="290" width="100" height="18" rx="6" fill="#cfd5d9" />
  <rect x="570" y="320" width="100" height="18" rx="6" fill="#cfd5d9" />
  <rect x="570" y="350" width="100" height="18" rx="6" fill="#cfd5d9" />
  <rect x="570" y="380" width="100" height="18" rx="6" fill="#cfd5d9" />
  <rect x="0" y="520" width="800" height="80" fill="#eef1f3" />
</svg>
